<svg width="60" height="60" viewBox="0 0 60 60" fill="none" xmlns="http://www.w3.org/2000/svg">
<path d="M25.556 0.158042L25.5418 0.13803L25.5046 0.166618C11.1704 1.6904 0 13.8321 0 28.5925C0 35.2023 2.24151 41.2888 6.00495 46.1318V46.1375H6.01066C8.38977 49.2061 11.3693 51.7564 14.7669 53.6322C18.1644 55.5081 21.9086 56.67 25.7702 57.047C25.9044 55.6862 26.2356 54.2624 26.7325 52.8244C20.5724 52.3665 14.8202 49.5682 10.6536 45.0025C10.8106 44.3164 10.882 43.5188 10.9391 42.8269L10.9648 42.4896C11.0162 41.8606 11.0648 41.2545 11.1447 40.6427C11.3446 39.1361 11.6872 38.1298 12.2212 37.5608C12.9065 36.8261 13.6089 36.7032 15.0795 36.443L15.345 36.3944C16.0989 36.2629 17.1068 36.0599 18.0777 35.531C19.1142 34.965 19.9908 34.1016 20.6504 32.8294C21.3157 31.5486 21.2672 30.2278 21.0844 29.1843C20.9182 28.3487 20.6989 27.5246 20.4277 26.7171C20.3835 26.5762 20.3397 26.4352 20.2963 26.294C19.711 24.3842 19.6396 23.4551 20.1222 22.7204C20.6476 21.9199 21.3671 21.7369 23.2403 21.2509L23.483 21.1909C25.3847 20.6991 27.9603 19.8758 29.4508 16.6938C31.067 13.2489 30.1561 9.36365 29.1653 6.72776C28.8528 5.8997 28.4973 5.08857 28.1002 4.29771C28.2516 4.29199 28.4029 4.29199 28.5542 4.29199C33.1381 4.28498 37.6295 5.58393 41.5036 8.03713C40.9553 8.76615 40.2215 9.72673 39.402 10.7531C37.6031 13.003 35.5757 15.3187 34.1937 16.3565C33.5573 16.822 33.0741 17.467 32.806 18.209C32.5752 18.8836 32.5211 19.6061 32.6489 20.3075C32.8488 21.4968 33.4798 22.6117 34.0395 23.4637C34.5049 24.1755 35.0532 24.8931 35.5129 25.4992L35.827 25.908C36.0925 26.2654 36.3124 26.5598 36.4752 26.8143C36.558 26.9372 36.6179 27.0373 36.6579 27.1116C36.6979 27.1831 36.7122 27.2202 36.715 27.2231C36.8292 27.5376 36.952 28.0522 37.0948 28.7669L37.1576 29.0699C38.4254 28.5039 39.7989 28.0693 41.2694 27.7977C41.1401 27.0996 40.9607 26.4117 40.7326 25.7393C40.4185 24.8903 39.7361 23.9783 39.2449 23.3264C39.1216 23.1641 38.9979 23.0021 38.8737 22.8404C38.4359 22.2787 38.0178 21.7018 37.6202 21.1108C37.1776 20.4361 36.9634 19.9701 36.8921 19.6871C38.7481 18.2519 41.0267 15.5817 42.7457 13.4347C43.5909 12.3769 44.3447 11.3906 44.9072 10.6359C49.6169 14.9267 52.4483 20.9025 52.7882 27.2688C54.4443 27.4004 55.8721 27.6176 57.0999 27.8721C56.7173 12.4169 44.0849 0.00366211 28.5542 0.00366211C27.5434 0.00366211 26.5412 0.0551218 25.556 0.158042ZM6.95581 39.6878C5.25408 36.3657 4.33953 32.6957 4.28309 28.9625C4.22666 25.2293 5.02986 21.5333 6.63039 18.1611C8.23093 14.7888 10.5858 11.8311 13.5123 9.51711C16.4389 7.20315 19.8584 5.59522 23.5058 4.81802C24.1554 5.90736 24.7086 7.05145 25.1591 8.23725C26.0557 10.6244 26.4155 13.0716 25.576 14.8699C24.9336 16.2364 24.0198 16.6224 22.4122 17.0369L21.9496 17.1513C20.4306 17.5201 18.0349 18.0975 16.5443 20.3618C14.8282 22.9691 15.6734 25.8251 16.2017 27.5519L16.373 28.1008C16.6014 28.8298 16.7728 29.3873 16.8641 29.919C16.9726 30.5394 16.8927 30.7653 16.8527 30.8482C16.5672 31.3999 16.2816 31.6258 16.0303 31.763C15.7162 31.9346 15.3051 32.0489 14.5969 32.1718C14.4827 32.1947 14.3571 32.2147 14.2257 32.2347C12.9037 32.452 10.8021 32.7979 9.09167 34.6362C7.70393 36.1228 7.19852 38.0954 6.95581 39.6878ZM28.5742 57.7674C28.7455 55.0086 29.9877 51.6437 32.095 48.4732C32.7774 47.3125 33.6198 46.1375 34.6249 44.9911C38.0127 41.1322 42.4885 38.3912 47.4628 37.1291C47.8305 37.037 48.1466 36.8024 48.3415 36.477C48.5364 36.1516 48.5942 35.7619 48.5022 35.3938C48.4102 35.0257 48.1759 34.7092 47.8509 34.5141C47.5258 34.3189 47.1366 34.261 46.769 34.3532C41.2312 35.7568 36.2484 38.8079 32.4776 43.1042C31.7152 43.9762 31.0213 44.8824 30.4045 45.8001C30.1234 44.8547 29.9811 43.8734 29.9819 42.8869C29.9819 40.2653 31.3154 37.4179 33.4284 35.1594C35.8382 32.5925 39.0623 30.9416 42.5515 30.488C50.5467 29.4302 55.5094 30.3164 58.4362 31.1369C58.8315 31.2478 59.1867 31.4701 59.4593 31.7774C59.732 32.0847 59.9108 32.4639 59.9742 32.87C60.0377 33.2761 59.9833 33.6919 59.8174 34.0678C59.6516 34.4438 59.3813 34.7642 59.0387 34.9907C58.876 35.0993 58.6133 35.3624 58.2963 35.9627C57.9219 36.72 57.6161 37.5093 57.3826 38.3213C57.1342 39.1332 56.8972 40.0109 56.6402 40.9658L56.4746 41.5719C56.1576 42.744 55.8064 44.0019 55.3838 45.2484C54.55 47.7127 53.3736 50.3429 51.3948 52.3613C49.3417 54.4568 46.5548 55.7634 42.8313 55.7634C39.0365 55.7634 36.3867 54.2224 34.6934 52.4499C33.5398 54.5655 32.9402 56.5581 32.8488 58.0276C32.8048 58.5879 32.5428 59.1086 32.1192 59.4774C31.6955 59.8463 31.1442 60.0338 30.5839 59.9997C30.0235 59.9656 29.4989 59.7126 29.1231 59.2951C28.7472 58.8776 28.5501 58.329 28.5742 57.7674Z" fill="#754E29"/>
</svg>
